<svg width="32" height="32" viewBox="0 0 32 32" fill="none" xmlns="http://www.w3.org/2000/svg">
<rect width="32" height="32" rx="6" fill="#F9E000"/>
<path d="M16.5 6.375C23.025 6.375 28.3136 10.497 28.3136 15.5831C28.3136 20.6681 23.025 24.7901 16.5011 24.7901C15.8515 24.7904 15.2025 24.7491 14.5582 24.6664L9.59922 27.9098C9.0356 28.2079 8.83647 28.1753 9.06822 27.4451L10.0717 23.3074C6.83172 21.6649 4.6886 18.8186 4.6886 15.5831C4.6886 10.4981 9.9761 6.375 16.5011 6.375H16.5ZM23.1465 15.4425L24.8002 13.8405C24.8956 13.7414 24.9489 13.6091 24.9487 13.4716C24.9486 13.334 24.895 13.2018 24.7993 13.103C24.7037 13.0041 24.5734 12.9462 24.4359 12.9415C24.2984 12.9368 24.1644 12.9856 24.0622 13.0778L21.8932 15.177V13.4423C21.8932 13.3014 21.8373 13.1664 21.7377 13.0668C21.6381 12.9672 21.5031 12.9113 21.3622 12.9113C21.2214 12.9113 21.0863 12.9672 20.9867 13.0668C20.8872 13.1664 20.8312 13.3014 20.8312 13.4423V16.3189C20.8114 16.4009 20.8114 16.4866 20.8312 16.5686V18.1875C20.8312 18.3283 20.8872 18.4634 20.9867 18.563C21.0863 18.6626 21.2214 18.7185 21.3622 18.7185C21.5031 18.7185 21.6381 18.6626 21.7377 18.563C21.8373 18.4634 21.8932 18.3283 21.8932 18.1875V16.6541L22.3736 16.1895L23.9801 18.4766C24.0202 18.5337 24.0712 18.5824 24.1301 18.6198C24.189 18.6572 24.2547 18.6826 24.3234 18.6946C24.3922 18.7066 24.4626 18.705 24.5307 18.6898C24.5988 18.6746 24.6632 18.6461 24.7203 18.606C24.7774 18.5659 24.8261 18.5149 24.8635 18.456C24.9009 18.3971 24.9263 18.3314 24.9383 18.2627C24.9504 18.1939 24.9487 18.1235 24.9335 18.0554C24.9183 17.9873 24.8898 17.9229 24.8497 17.8658L23.1465 15.4414V15.4425ZM19.8187 17.607H18.1762V13.4591C18.1699 13.3227 18.1113 13.1939 18.0125 13.0995C17.9137 13.0052 17.7824 12.9526 17.6458 12.9526C17.5092 12.9526 17.3778 13.0052 17.2791 13.0995C17.1803 13.1939 17.1216 13.3227 17.1153 13.4591V18.138C17.1153 18.4305 17.3516 18.669 17.6452 18.669H19.8187C19.9596 18.669 20.0946 18.6131 20.1942 18.5135C20.2938 18.4139 20.3497 18.2788 20.3497 18.138C20.3497 17.9972 20.2938 17.8621 20.1942 17.7625C20.0946 17.6629 19.9596 17.607 19.8187 17.607ZM13.2296 16.3796L14.0126 14.4581L14.7303 16.3785L13.2296 16.3796ZM16.068 16.9275L16.0702 16.9095C16.07 16.7757 16.0189 16.647 15.9273 16.5495L14.7506 13.3995C14.7013 13.2494 14.6073 13.1179 14.4813 13.0226C14.3552 12.9273 14.2031 12.8728 14.0452 12.8663C13.8862 12.8656 13.7307 12.9133 13.5995 13.0031C13.4683 13.093 13.3675 13.2206 13.3106 13.3691L11.4408 17.9535C11.3876 18.0839 11.3883 18.2301 11.4428 18.3599C11.4974 18.4898 11.6013 18.5927 11.7317 18.6459C11.862 18.6992 12.0083 18.6985 12.1381 18.6439C12.268 18.5894 12.3708 18.4855 12.4241 18.3551L12.7976 17.4405H15.1263L15.4616 18.3405C15.4845 18.4078 15.5206 18.4698 15.5679 18.5228C15.6151 18.5759 15.6726 18.6189 15.7368 18.6494C15.801 18.6798 15.8706 18.6971 15.9416 18.7001C16.0126 18.7031 16.0835 18.6919 16.15 18.6671C16.2166 18.6422 16.2775 18.6043 16.3291 18.5554C16.3808 18.5066 16.4221 18.4479 16.4506 18.3829C16.4792 18.3178 16.4944 18.2477 16.4953 18.1766C16.4962 18.1056 16.4829 18.0351 16.4561 17.9693L16.068 16.9275ZM12.3307 13.4648C12.3307 13.3241 12.2749 13.1892 12.1756 13.0897C12.0763 12.9901 11.9415 12.934 11.8008 12.9338H8.15022C8.00939 12.9338 7.87433 12.9897 7.77475 13.0893C7.67517 13.1889 7.61922 13.3239 7.61922 13.4648C7.61922 13.6056 7.67517 13.7406 7.77475 13.8402C7.87433 13.9398 8.00939 13.9958 8.15022 13.9958H9.45522V18.1988C9.45522 18.3396 9.51117 18.4746 9.61075 18.5742C9.71033 18.6738 9.84539 18.7298 9.98622 18.7298C10.1271 18.7298 10.2621 18.6738 10.3617 18.5742C10.4613 18.4746 10.5172 18.3396 10.5172 18.1988V13.9958H11.7997C11.9406 13.9958 12.0756 13.9398 12.1752 13.8402C12.2748 13.7406 12.3307 13.6056 12.3307 13.4648Z" fill="black"/>
</svg>
